/* XPM */
static char *rito16[] = {
/* columns rows colors chars-per-pixel */
"16 16 73 1 ",
"  c #010101",
". c #001300",
"X c #001400",
"o c #001500",
"O c #001A00",
"+ c #001B00",
"@ c #001D00",
"# c #000113",
"$ c #000017",
"% c #131313",
"& c #141414",
"* c #1B1B1A",
"= c #1B1B1B",
"- c #002000",
"; c #002100",
": c #002501",
"> c #000021",
", c #000024",
"< c #10122E",
"1 c #10132E",
"2 c #15153D",
"3 c #223022",
"4 c #233123",
"5 c #161640",
"6 c #181F44",
"7 c #11124E",
"8 c #11124F",
"9 c #181948",
"0 c #18194B",
"q c #1A1A4C",
"w c #121551",
"e c #131455",
"r c #151658",
"t c #15155A",
"y c #202156",
"u c #212258",
"i c #303063",
"p c #37376C",
"a c #393A6B",
"s c #3A3A6C",
"d c #414142",
"f c #424244",
"g c #434344",
"h c #464647",
"j c #434357",
"k c #44445A",
"l c #5A5A5A",
"z c #5D5D5D",
"x c #4E4E62",
"c c #4E4E64",
"v c #4F4F65",
"b c #545467",
"n c #52526F",
"m c #525270",
"M c #666666",
"N c #696969",
"B c #6A6A6A",
"V c #6A6A6B",
"C c #6D6D6C",
"Z c #707070",
"A c #717170",
"S c #737373",
"D c #2B2D85",
"F c #2E2F87",
"G c #2C2E88",
"H c #2E2F88",
"J c #30318F",
"K c #313293",
"L c #8F8F8E",
"P c #929291",
"I c #969695",
"U c #979796",
"Y c None",
/* pixels */
"YYYYYYYYYYYYYYYY",
"YYYYYYYYYYYYYYYY",
"YYYYYYYYYYYYYYYY",
"YlCc6YYYYYY0xZzY",
"YZLmw#Y  Y$enPZY",
"YMIk8>h%&f,8jUBY",
"YYBsDrb*=vrHaCYY",
"YYYyFJpfdiKHuYYY",
"YYYY201441q2YYYY",
"YYYYYYYXXYYYYYYY",
"YYYYYY@--@YYYYYY",
"YYYYYYO::OYYYYYY",
"YYYYYYX--XYYYYYY",
"YYYYYYYX.YYYYYYY",
"YYYYYYYYYYYYYYYY",
"YYYYYYYYYYYYYYYY"
};
