/* XPM */
static char *rito32[] = {
/* columns rows colors chars-per-pixel */
"32 32 236 2 ",
"   c #000000",
".  c #000100",
"X  c #000001",
"o  c #000300",
"O  c #000002",
"+  c #000003",
"@  c #000400",
"#  c #000600",
"$  c #000700",
"%  c #050505",
"&  c #000B00",
"*  c #000C00",
"=  c #000D00",
"-  c #000E00",
";  c #03030A",
":  c #04040C",
">  c #0F0F0E",
",  c #001000",
"<  c #001100",
"1  c #001200",
"2  c #001400",
"3  c #001500",
"4  c #001600",
"5  c #001700",
"6  c #001800",
"7  c #001900",
"8  c #011901",
"9  c #001A00",
"0  c #001B00",
"q  c #011B01",
"w  c #001C00",
"e  c #001E00",
"r  c #001E01",
"t  c #001F01",
"y  c #040513",
"u  c #000017",
"i  c #050514",
"p  c #080816",
"a  c #00001C",
"s  c #00051C",
"d  c #0A0A1E",
"f  c #0A0B1E",
"g  c #0A0B1F",
"h  c #051912",
"j  c #101010",
"k  c #121212",
"l  c #141414",
"z  c #151517",
"x  c #1B1B1B",
"c  c #1D1D1D",
"v  c #1F1F1F",
"b  c #002000",
"n  c #002100",
"m  c #002200",
"M  c #002300",
"N  c #002301",
"B  c #002401",
"V  c #002501",
"C  c #002601",
"Z  c #000026",
"A  c #070726",
"S  c #0D0D27",
"D  c #000028",
"F  c #05062F",
"G  c #0F0F2B",
"H  c #000034",
"J  c #060A33",
"K  c #0B0C37",
"L  c #00003A",
"P  c #00003B",
"I  c #01013D",
"U  c #00003F",
"Y  c #09093A",
"T  c #08083B",
"R  c #090A3A",
"E  c #0C0C39",
"W  c #111131",
"Q  c #191937",
"!  c #16173D",
"~  c #17183B",
"^  c #18183F",
"/  c #1B1C3D",
"(  c #202020",
")  c #212121",
"_  c #242424",
"`  c #262926",
"'  c #282B28",
"]  c #323233",
"[  c #363636",
"{  c #383838",
"}  c #39393A",
"|  c #3B3B3E",
" . c #3B3B3F",
".. c #030340",
"X. c #020243",
"o. c #000044",
"O. c #191A42",
"+. c #1F1F43",
"@. c #1B1C46",
"#. c #1A1B48",
"$. c #191A4B",
"%. c #1A1B4D",
"&. c #19194F",
"*. c #1A1B4E",
"=. c #1B1B4F",
"-. c #1E1F4C",
";. c #171754",
":. c #191A51",
">. c #1D1D54",
",. c #18195A",
"<. c #1E1F5B",
"1. c #1F204F",
"2. c #1F205E",
"3. c #242443",
"4. c #2C2C44",
"5. c #272849",
"6. c #2A2A4E",
"7. c #212160",
"8. c #212261",
"9. c #212262",
"0. c #2C2D63",
"q. c #202068",
"w. c #202168",
"e. c #24256A",
"r. c #25266E",
"t. c #25266F",
"y. c #2E2F69",
"u. c #252670",
"i. c #262872",
"p. c #272873",
"a. c #272874",
"s. c #282976",
"d. c #25267A",
"f. c #292A79",
"g. c #2A2B7E",
"h. c #2A2B7F",
"j. c #2B2C7F",
"k. c #31327A",
"l. c #32337D",
"z. c #444444",
"x. c #454545",
"c. c #484848",
"v. c #494949",
"b. c #4C4C4C",
"n. c #474752",
"m. c #484850",
"M. c #505150",
"N. c #565656",
"B. c #565657",
"V. c #585858",
"C. c #595959",
"Z. c #5A5A5A",
"A. c #5A5A5B",
"S. c #5A5A5C",
"D. c #5C5C5C",
"F. c #5E5E5E",
"G. c #4C4C62",
"H. c #4B4B72",
"J. c #4E4F76",
"K. c #5D5D78",
"L. c #606060",
"P. c #636363",
"I. c #646464",
"U. c #656564",
"Y. c #656565",
"T. c #666665",
"R. c #676766",
"E. c #676767",
"W. c #666669",
"Q. c #686868",
"!. c #68686B",
"~. c #6A6A6A",
"^. c #6B6B6B",
"/. c #69696D",
"(. c #6A6A6C",
"). c #6D6D6C",
"_. c #727272",
"`. c #747474",
"'. c #757575",
"]. c #787877",
"[. c #797979",
"{. c #7D7D7D",
"}. c #7F7F7F",
"|. c #80807F",
" X c #2B2C80",
".X c #2C2D82",
"XX c #2C2D84",
"oX c #2D2E84",
"OX c #2E2F87",
"+X c #2E2F89",
"@X c #2E2F8A",
"#X c #2F308B",
"$X c #2F318D",
"%X c #2F308E",
"&X c #31328F",
"*X c #313290",
"=X c #313291",
"-X c #313391",
";X c #323392",
":X c #333495",
">X c #333497",
",X c #333598",
"<X c #34359A",
"1X c #35369B",
"2X c #35369C",
"3X c #36379F",
"4X c #3638A0",
"5X c #3739A2",
"6X c #3739A3",
"7X c #393AA7",
"8X c #818180",
"9X c #828282",
"0X c #848484",
"qX c #878787",
"wX c #898989",
"eX c #8A8A8A",
"rX c #8B8B8B",
"tX c #8C8C8C",
"yX c #8E8E8E",
"uX c #8F8F8F",
"iX c #919191",
"pX c #929292",
"aX c #959595",
"sX c #969696",
"dX c #979797",
"fX c #989898",
"gX c #9A9A9A",
"hX c #9B9B9B",
"jX c #9C9C9C",
"kX c #9D9D9D",
"lX c #9E9E9E",
"zX c #9F9F9F",
"xX c #A0A09F",
"cX c #ACACAC",
"vX c #AEAEAE",
"bX c None",
/* pixels */
"bXbXbXbXbXbXbXbXbXbXbXbXbXbXbXbXbXbXbXbXbXbXbXbXbXbXbXbXbXbXbXbX",
"bXbXbXbXbXbXbXbXbXbXbXbXbXbXbXbXbXbXbXbXbXbXbXbXbXbXbXbXbXbXbXbX",
"bXbXbXbXbXbXbXbXbXbXbXbXbXbXbXbXbXbXbXbXbXbXbXbXbXbXbXbXbXbXbXbX",
"bXbXbXbXbXbXbXbXbXbXbXbXbXbXbXbXbXbXbXbXbXbXbXbXbXbXbXbXbXbXbXbX",
"bXbXbXbXbXbXbXbXbXbXbXbXbXbXbXbXbXbXbXbXbXbXbXbXbXbXbXbXbXbXbXbX",
"bXbXbX[ I.Z.~.bXbXbXbXbXbXbXbXbXbXbXbXbXbXbXbXbXbX~.Z.~.} bXbXbX",
"bXbXb.~.L.I.I.n.O.bXbXbXbXbXbXbXbXbXbXbXbXbXbX~ m.I.I.I.~.v.bXbX",
"bXbXL.~.'.'.S.y.p.h bXbXbXbXbXbX  bXbXbXbXbXF u.0.S.'.[._.I.bXbX",
"bXbXL.{.uXrXW.l..XJ s   bXbXbX    bXbXbX  Z T $Xk./.uXiX{.I.bXbX",
"bXbXL.9XaXgX|.6.q.X.Z     bX        bX    D X.q.5.9XjXfX0XL.bXbX",
"bXbXx.uXkXgX)./ :.I H   j Z.j     z Z.>   P I :.Q ).gXxXiXc.bXbX",
"bXbXv {.kXaXB.#.u.K X.u } vXx     x vX] a o.E a.! B.aXkX}._ bXbX",
"bXbXbXx.rXqX .2.,Xr.Y P 4.cXl     z gX3.I Y u.;X<.| rXtXc.bXbXbX",
"bXbXbXbXv.I.J.+X:X:Xh.,./ rX(     _ rX@.;.OX3X,X$XH.U.v.bXbXbXbX",
"bXbXbXbXbXz 1..X*X3X3X5Xh.K.F.% % U.G.d.6X7X5X*X+X-.z bXbXbXbXbX",
"bXbXbXbXbXbXf %.f.*X#XOXh.! /.Z.F.I.A h.*X;X*Xs.#.f bXbXbXbXbXbX",
"bXbXbXbXbXbXbXbXW >.7.7.*.y ' M.b.' i *.e.7.*.G bXbXbXbXbXbXbXbX",
"bXbXbXbXbXbXbXbXbXbXp f ; bXm 9 q q bX: S p bXbXbXbXbXbXbXbXbXbX",
"bXbXbXbXbXbXbXbXbXbXbXbXbXbX1 q 9 - bXbXbXbXbXbXbXbXbXbXbXbXbXbX",
"bXbXbXbXbXbXbXbXbXbXbXbXbX9 3 - - 9 9 bXbXbXbXbXbXbXbXbXbXbXbXbX",
"bXbXbXbXbXbXbXbXbXbXbXbXbXm m q q m B bXbXbXbXbXbXbXbXbXbXbXbXbX",
"bXbXbXbXbXbXbXbXbXbXbXbX9 B B B m m B 9 bXbXbXbXbXbXbXbXbXbXbXbX",
"bXbXbXbXbXbXbXbXbXbXbX  1 B B C B m B 1   bXbXbXbXbXbXbXbXbXbXbX",
"bXbXbXbXbXbXbXbXbXbXbXbX1 C B B B B B - bXbXbXbXbXbXbXbXbXbXbXbX",
"bXbXbXbXbXbXbXbXbXbXbXbX1 m B B B m B 1 bXbXbXbXbXbXbXbXbXbXbXbX",
"bXbXbXbXbXbXbXbXbXbXbXbX$ 1 q q m q 1   bXbXbXbXbXbXbXbXbXbXbXbX",
"bXbXbXbXbXbXbXbXbXbXbXbXbX$ 9 3 3 9 $ bXbXbXbXbXbXbXbXbXbXbXbXbX",
"bXbXbXbXbXbXbXbXbXbXbXbXbXbXbX& & bXbXbXbXbXbXbXbXbXbXbXbXbXbXbX",
"bXbXbXbXbXbXbXbXbXbXbXbXbXbXbXbXbXbXbXbXbXbXbXbXbXbXbXbXbXbXbXbX",
"bXbXbXbXbXbXbXbXbXbXbXbXbXbXbXbXbXbXbXbXbXbXbXbXbXbXbXbXbXbXbXbX",
"bXbXbXbXbXbXbXbXbXbXbXbXbXbXbXbXbXbXbXbXbXbXbXbXbXbXbXbXbXbXbXbX",
"bXbXbXbXbXbXbXbXbXbXbXbXbXbXbXbXbXbXbXbXbXbXbXbXbXbXbXbXbXbXbXbX"
};
