/* XPM */
static char *rito64[] = {
/* columns rows colors chars-per-pixel */
"64 64 110 2 ",
"   c #000101",
".  c #000B00",
"X  c #02020B",
"o  c #0C0C0C",
"O  c #001400",
"+  c #001C00",
"@  c #030314",
"#  c #070816",
"$  c #080916",
"%  c #01021B",
"&  c #0B0B1C",
"*  c #09131D",
"=  c #131313",
"-  c #1A1A1B",
";  c #002301",
":  c #002B01",
">  c #003201",
",  c #003901",
"<  c #020224",
"1  c #000C22",
"2  c #0B0C23",
"3  c #02022D",
"4  c #0D0D2A",
"5  c #0F102E",
"6  c #101025",
"7  c #10112F",
"8  c #191928",
"9  c #010234",
"0  c #00003C",
"q  c #0C0C3A",
"w  c #0C0D33",
"e  c #111233",
"r  c #1D1D33",
"t  c #14143B",
"y  c #232323",
"u  c #2B2B2B",
"i  c #242532",
"p  c #212139",
"a  c #323232",
"s  c #36363C",
"d  c #3B3B3A",
"f  c #000044",
"g  c #00014C",
"h  c #161643",
"j  c #171844",
"k  c #181947",
"l  c #1A1B4C",
"z  c #000153",
"x  c #1C1C54",
"c  c #1E1F59",
"v  c #1F205D",
"b  c #24254B",
"n  c #363643",
"m  c #3B3C4A",
"M  c #202152",
"N  c #282954",
"B  c #23245E",
"V  c #393954",
"C  c #333459",
"Z  c #222362",
"A  c #24256B",
"S  c #393A63",
"D  c #262770",
"F  c #272873",
"G  c #282976",
"H  c #272978",
"J  c #2A2B7B",
"K  c #434343",
"L  c #4B4B4B",
"P  c #4D4D56",
"I  c #535353",
"U  c #585857",
"Y  c #55565D",
"T  c #5B5B5B",
"R  c #646464",
"E  c #6B6B6B",
"W  c #70706E",
"Q  c #696973",
"!  c #6F6F7B",
"~  c #737373",
"^  c #7C7C7C",
"/  c #80807E",
"(  c #2D2E84",
")  c #2E2F88",
"_  c #2F308A",
"`  c #30318E",
"'  c #323495",
"]  c #35369C",
"[  c #3738A3",
"{  c #383AA5",
"}  c #3A3CAC",
"|  c #3D3EB3",
" . c #3E40B7",
".. c #3F41BA",
"X. c #4042BD",
"o. c #4244C4",
"O. c #4446CA",
"+. c #4648CE",
"@. c #4648D0",
"#. c #838383",
"$. c #8C8C8C",
"%. c #939393",
"&. c #9D9D9D",
"*. c #A3A3A3",
"=. c #ABABAB",
"-. c #B3B3B2",
";. c #BCBCBC",
":. c #C4C4C4",
">. c #CACACA",
",. c None",
/* pixels */
",.,.,.,.,.,.,.,.,.,.,.,.,.,.,.,.,.,.,.,.,.,.,.,.,.,.,.,.,.,.,.,.,.,.,.,.,.,.,.,.,.,.,.,.,.,.,.,.,.,.,.,.,.,.,.,.,.,.,.,.,.,.,.,.",
",.,.,.,.,.,.,.,.,.,.,.,.,.,.,.,.,.,.,.,.,.,.,.,.,.,.,.,.,.,.,.,.,.,.,.,.,.,.,.,.,.,.,.,.,.,.,.,.,.,.,.,.,.,.,.,.,.,.,.,.,.,.,.,.",
",.,.,.,.,.,.,.,.,.,.,.,.,.,.,.,.,.,.,.,.,.,.,.,.,.,.,.,.,.,.,.,.,.,.,.,.,.,.,.,.,.,.,.,.,.,.,.,.,.,.,.,.,.,.,.,.,.,.,.,.,.,.,.,.",
",.,.,.,.,.,.,.,.,.,.,.,.,.,.,.,.,.,.,.,.,.,.,.,.,.,.,.,.,.,.,.,.,.,.,.,.,.,.,.,.,.,.,.,.,.,.,.,.,.,.,.,.,.,.,.,.,.,.,.,.,.,.,.,.",
",.,.,.,.,.,.,.,.,.,.,.,.,.,.,.,.,.,.,.,.,.,.,.,.,.,.,.,.,.,.,.,.,.,.,.,.,.,.,.,.,.,.,.,.,.,.,.,.,.,.,.,.,.,.,.,.,.,.,.,.,.,.,.,.",
",.,.,.,.,.,.,.,.,.,.,.,.,.,.,.,.,.,.,.,.,.,.,.,.,.,.,.,.,.,.,.,.,.,.,.,.,.,.,.,.,.,.,.,.,.,.,.,.,.,.,.,.,.,.,.,.,.,.,.,.,.,.,.,.",
",.,.,.,.,.,.,.,.,.,.,.,.,.,.,.,.,.,.,.,.,.,.,.,.,.,.,.,.,.,.,.,.,.,.,.,.,.,.,.,.,.,.,.,.,.,.,.,.,.,.,.,.,.,.,.,.,.,.,.,.,.,.,.,.",
",.,.,.,.,.,.,.,.,.,.,.,.,.,.,.,.,.,.,.,.,.,.,.,.,.,.,.,.,.,.,.,.,.,.,.,.,.,.,.,.,.,.,.,.,.,.,.,.,.,.,.,.,.,.,.,.,.,.,.,.,.,.,.,.",
",.,.,.,.,.,.,.,.,.,.X ,.,.,.,.,.,.,.,.,.,.,.,.,.,.,.,.,.,.,.,.,.,.,.,.,.,.,.,.,.,.,.,.,.,.,.,.,.,.,.,.,.,.X ,.,.,.,.,.,.,.,.,.,.",
",.,.,.,.,.  ,.,.,.,.= R ,.,.,.,.,.,.,.,.,.,.,.,.,.,.,.,.,.,.,.,.,.,.,.,.,.,.,.,.,.,.,.,.,.,.,.,.,.,.,.,.R = ,.,.,.,.  ,.,.,.,.,.",
",.,.,.,.,.  y E R ,.,.K $.~ ,.,.,.,.,.,.,.,.,.,.,.,.,.,.,.,.,.,.,.,.,.,.,.,.,.,.,.,.,.,.,.,.,.,.,.,.E #.K ,.,.E ~ y   ,.,.,.,.,.",
",.,.,.,.,.,.  a ~ %.#.K u ~ $.,.,.,.,.,.,.,.,.,.,.,.,.,.,.,.,.,.,.,.,.,.,.,.,.,.,.,.,.,.,.,.,.,.,.#.^ u K / %.~ a ,.,.,.,.,.,.,.",
",.,.,.X I #.~ K - u U $.$.I I T 7 ,.,.,.,.,.,.,.,.,.,.,.,.,.,.,.,.,.,.,.,.,.,.,.,.,.,.,.,.,.,.6 R U I $.$.T u - d E ^ I X ,.,.,.",
",.,.,.,.- I #.&.*.#.U K L E U r G e ,.,.,.,.,.,.,.,.,.,.,.,.,.,.,.,.,.,.,.,.,.,.,.,.,.,.,.,.e A 8 T E L K U $.*.*.#.I - ,.,.,.,.",
",.,.,.,.,.- = - d U ~ $.^ T i A ` h O ; ,.,.,.,.,.,.,.,.,.,.,.,.  ,.,.,.,.,.,.,.,.,.,.,.3 % t J c i T ^ #./ R K y - ,.,.,.,.,.,.",
",.,.  K $.*.*.*.%.$./ W R K B ] [ ( * ; : ,.,.,.,.,.,.,.,.,.,.    ,.,.,.,.,.,.,.,.,.,.0 0 4 ( [ ' B K R ~ ^ $.&.*.*.*.$.L   ,.,.",
",.,.,.,.,.d U W } / / / / d B { ' F 4 9 1 X   ,.,.,.,.,.,.,.        ,.,.,.,.,.,.,.  @ 9 0 4 ( ' { b L ~ ^ $.$.$.E I K ,.,.,.,.,.",
",.,.,.= I R E ~ #.%.=.*./ W N ] ] D < f 0 X     ,.,.,.,.,.,.        ,.,.,.,.,.,.    @ f 0 2 ) [ ] b Q %.*.&.%.$.^ E E U ,.,.,.,.",
",.,.  - #.=.;.;.-.&.%.#./ / d S { G < f 0 X       ,.,.,.,.            ,.,.,.,.      X f 0 3 J [ F s $.$.#.$.*.-.;.;.-.#.-   ,.,.",
",.,.,.,.,.y a L E $.=.-.*./ - = F w f z f X         ,.,.                ,.,.        @ f g f w D 2 = E &.-.=.%.E L a 8 ,.,.,.,.,.",
",.,.,.,.= U $.-.:.-.$.^ $.^ o 7 A 4 f f 0 @         o u                 u o         % g g f 2 A 4 o ^ $.^ $.-.:.-.%.T = ,.,.,.,.",
",.,.,.  - %.-.%.^ / *.-.#.d 2 H ( h < f z 9       a %.=.y             u -.$.y       0 z g % t ( A # d / -.*./ ^ *.-.%.-   ,.,.,.",
",.,.,.,.,.= L / -.;.&.~ $.T 4 J c A @ 9 g f @     ~ >.;.y             u ;.>.U     % f z 9 # G B A $ T %.~ &.:.-.#.K = ,.,.,.,.,.",
",.,.,.,.,.o $.:.*.W $.-.~ = t t ` ( c @ f g 9 @   U >.-.=             - -.>.I   % 0 z f @ c ( ` t 4 = ~ -.$.~ *.:.$.o ,.,.,.,.,.",
",.,.,.,.,.,.y K E =.=.E R =   ( ) } H t % f f f % L >.=.=             o *.:.d < f g f % t J ] ` (   = R E =.-.E K u ,.,.,.,.,.,.",
",.,.,.,.,.,.  L ;.$.R %.I = A ' ' ' ' D x % f z f s :.*.o             o *.;.i g z f % x A ] ] ` ] Z = L %.R $.:.L ,.,.,.,.,.,.,.",
",.,.,.,.,.,.,.- d I =.U / S { D | ( ] ' H Z % < < - =.=.=             - -.*.& 9 < % A ) ] { ( X.D [ C ^ U =.I d y ,.,.,.,.,.,.,.",
",.,.,.,.,.,.,.,.  T L E ! ] B  .F | D o.( [ ` A ( X ^ :.a             d :.E # ` c H { ` o.H | J | A ] Q E K U   ,.,.,.,.,.,.,.,.",
",.,.,.,.,.,.,.,.,.,.X y B A F { F | D o.' ] o.) ..k V -.#.X         o #.-.p q o.( ..{ ' O.F X.D | H G B y   ,.,.,.,.,.,.,.,.,.,.",
",.,.,.,.,.,.,.,.,.,.,.  4 6 X.l | H [ [ [ ( X.G o.c H Y -.I         U ;.P 0 x O.G o.] ] } ] J } c X.6 4   ,.,.,.,.,.,.,.,.,.,.,.",
",.,.,.,.,.,.,.,.,.,.,.,.  t J t O.k o.H | A ..c ..c A Z T ;.~ o o ~ ;.I 9 3 A X.Z o.( } ( o.k o.e ( t   ,.,.,.,.,.,.,.,.,.,.,.,.",
",.,.,.,.,.,.,.,.,.,.,.,.,.# X l ' t @.l ..l ..l ] ( X 4 . $.:.u a >.#.  %   ) ` x o.Z | l +.e ] t X # ,.,.,.,.,.,.,.,.,.,.,.,.,.",
",.,.,.,.,.,.,.,.,.,.,.,.,.,.  2 2 k } e | 7 | t Z ]   ,.  L :.L I :.K   ,.  [ c l ..t } 4 } 7 2 # ,.,.,.,.,.,.,.,.,.,.,.,.,.,.,.",
",.,.,.,.,.,.,.,.,.,.,.,.,.,.,.,.  & t & ' # { t 2 A   ,.  o K - - K o   ,.  A # l [ # ` # t #   ,.,.,.,.,.,.,.,.,.,.,.,.,.,.,.,.",
",.,.,.,.,.,.,.,.,.,.,.,.,.,.,.,.,.,.  X e   l &     ,.,.+ ; O . . O + + ,.  X   e x   7     ,.,.,.,.,.,.,.,.,.,.,.,.,.,.,.,.,.,.",
",.,.,.,.,.,.,.,.,.,.,.,.,.,.,.,.,.,.,.,.        ,.,.,.,.: + : + + > + : ,.,.,.,.        ,.,.,.,.,.,.,.,.,.,.,.,.,.,.,.,.,.,.,.,.",
",.,.,.,.,.,.,.,.,.,.,.,.,.,.,.,.,.,.,.,.,.,.,.,.,.,.,.  O + : ; + : O O   ,.,.,.,.,.,.,.,.,.,.,.,.,.,.,.,.,.,.,.,.,.,.,.,.,.,.,.",
",.,.,.,.,.,.,.,.,.,.,.,.,.,.,.,.,.,.,.,.,.,.,.,.,.,.,..   O . ; + . .     ,.,.,.,.,.,.,.,.,.,.,.,.,.,.,.,.,.,.,.,.,.,.,.,.,.,.,.",
",.,.,.,.,.,.,.,.,.,.,.,.,.,.,.,.,.,.,.,.,.,.,.,.,.,.,.+ O     . .   . + + ,.,.,.,.,.,.,.,.,.,.,.,.,.,.,.,.,.,.,.,.,.,.,.,.,.,.,.",
",.,.,.,.,.,.,.,.,.,.,.,.,.,.,.,.,.,.,.,.,.,.,.,.,.,.O : + + O . . O + + : O ,.,.,.,.,.,.,.,.,.,.,.,.,.,.,.,.,.,.,.,.,.,.,.,.,.,.",
",.,.,.,.,.,.,.,.,.,.,.,.,.,.,.,.,.,.,.,.,.,.,.,.,.  ; ; ; ; + + O + + ; ; ;   ,.,.,.,.,.,.,.,.,.,.,.,.,.,.,.,.,.,.,.,.,.,.,.,.,.",
",.,.,.,.,.,.,.,.,.,.,.,.,.,.,.,.,.,.,.,.,.,.,.,.,.O : ; ; ; ; ; + ; + : ; : O ,.,.,.,.,.,.,.,.,.,.,.,.,.,.,.,.,.,.,.,.,.,.,.,.,.",
",.,.,.,.,.,.,.,.,.,.,.,.,.,.,.,.,.,.,.,.,.,.,.,.  > + : ; ; ; ; ; ; + ; : + >   ,.,.,.,.,.,.,.,.,.,.,.,.,.,.,.,.,.,.,.,.,.,.,.,.",
",.,.,.,.,.,.,.,.,.,.,.,.,.,.,.,.,.,.,.,.,.,.,.  + + + : ; ; ; : ; ; + ; : + ; +   ,.,.,.,.,.,.,.,.,.,.,.,.,.,.,.,.,.,.,.,.,.,.,.",
",.,.,.,.,.,.,.,.,.,.,.,.,.,.,.,.,.,.,.,.,.,.,.  . . : ; ; ; ; : ; ; ; ; ; : . .   ,.,.,.,.,.,.,.,.,.,.,.,.,.,.,.,.,.,.,.,.,.,.,.",
",.,.,.,.,.,.,.,.,.,.,.,.,.,.,.,.,.,.,.,.,.,.,.    ; ; : ; ; ; : ; + : + : ; ;     ,.,.,.,.,.,.,.,.,.,.,.,.,.,.,.,.,.,.,.,.,.,.,.",
",.,.,.,.,.,.,.,.,.,.,.,.,.,.,.,.,.,.,.,.,.,.,.  . + + : ; ; ; ; : ; ; ; : + +     ,.,.,.,.,.,.,.,.,.,.,.,.,.,.,.,.,.,.,.,.,.,.,.",
",.,.,.,.,.,.,.,.,.,.,.,.,.,.,.,.,.,.,.,.,.,.,.    . > + > O : ; ; : O > ; >       ,.,.,.,.,.,.,.,.,.,.,.,.,.,.,.,.,.,.,.,.,.,.,.",
",.,.,.,.,.,.,.,.,.,.,.,.,.,.,.,.,.,.,.,.,.,.,.,.  ; : + : O : ; ; : O > + > ;   ,.,.,.,.,.,.,.,.,.,.,.,.,.,.,.,.,.,.,.,.,.,.,.,.",
",.,.,.,.,.,.,.,.,.,.,.,.,.,.,.,.,.,.,.,.,.,.,.,.  + O > + ; ; ; ; ; + ; > . O   ,.,.,.,.,.,.,.,.,.,.,.,.,.,.,.,.,.,.,.,.,.,.,.,.",
",.,.,.,.,.,.,.,.,.,.,.,.,.,.,.,.,.,.,.,.,.,.,.,.,.  ; ;   > + ; : + :   : +   ,.,.,.,.,.,.,.,.,.,.,.,.,.,.,.,.,.,.,.,.,.,.,.,.,.",
",.,.,.,.,.,.,.,.,.,.,.,.,.,.,.,.,.,.,.,.,.,.,.,.,.  .   O > . + ; . , .   .   ,.,.,.,.,.,.,.,.,.,.,.,.,.,.,.,.,.,.,.,.,.,.,.,.,.",
",.,.,.,.,.,.,.,.,.,.,.,.,.,.,.,.,.,.,.,.,.,.,.,.,.,.,.  : :   ; ;   > ;   ,.,.,.,.,.,.,.,.,.,.,.,.,.,.,.,.,.,.,.,.,.,.,.,.,.,.,.",
",.,.,.,.,.,.,.,.,.,.,.,.,.,.,.,.,.,.,.,.,.,.,.,.,.,.,.  ; O   + ;   . ;   ,.,.,.,.,.,.,.,.,.,.,.,.,.,.,.,.,.,.,.,.,.,.,.,.,.,.,.",
",.,.,.,.,.,.,.,.,.,.,.,.,.,.,.,.,.,.,.,.,.,.,.,.,.,.,.    ,.,.+ + ,.,.    ,.,.,.,.,.,.,.,.,.,.,.,.,.,.,.,.,.,.,.,.,.,.,.,.,.,.,.",
",.,.,.,.,.,.,.,.,.,.,.,.,.,.,.,.,.,.,.,.,.,.,.,.,.,.,.,.,.,.,.    ,.,.,.,.,.,.,.,.,.,.,.,.,.,.,.,.,.,.,.,.,.,.,.,.,.,.,.,.,.,.,.",
",.,.,.,.,.,.,.,.,.,.,.,.,.,.,.,.,.,.,.,.,.,.,.,.,.,.,.,.,.,.,.    ,.,.,.,.,.,.,.,.,.,.,.,.,.,.,.,.,.,.,.,.,.,.,.,.,.,.,.,.,.,.,.",
",.,.,.,.,.,.,.,.,.,.,.,.,.,.,.,.,.,.,.,.,.,.,.,.,.,.,.,.,.,.,.,.,.,.,.,.,.,.,.,.,.,.,.,.,.,.,.,.,.,.,.,.,.,.,.,.,.,.,.,.,.,.,.,.",
",.,.,.,.,.,.,.,.,.,.,.,.,.,.,.,.,.,.,.,.,.,.,.,.,.,.,.,.,.,.,.,.,.,.,.,.,.,.,.,.,.,.,.,.,.,.,.,.,.,.,.,.,.,.,.,.,.,.,.,.,.,.,.,.",
",.,.,.,.,.,.,.,.,.,.,.,.,.,.,.,.,.,.,.,.,.,.,.,.,.,.,.,.,.,.,.,.,.,.,.,.,.,.,.,.,.,.,.,.,.,.,.,.,.,.,.,.,.,.,.,.,.,.,.,.,.,.,.,.",
",.,.,.,.,.,.,.,.,.,.,.,.,.,.,.,.,.,.,.,.,.,.,.,.,.,.,.,.,.,.,.,.,.,.,.,.,.,.,.,.,.,.,.,.,.,.,.,.,.,.,.,.,.,.,.,.,.,.,.,.,.,.,.,.",
",.,.,.,.,.,.,.,.,.,.,.,.,.,.,.,.,.,.,.,.,.,.,.,.,.,.,.,.,.,.,.,.,.,.,.,.,.,.,.,.,.,.,.,.,.,.,.,.,.,.,.,.,.,.,.,.,.,.,.,.,.,.,.,.",
",.,.,.,.,.,.,.,.,.,.,.,.,.,.,.,.,.,.,.,.,.,.,.,.,.,.,.,.,.,.,.,.,.,.,.,.,.,.,.,.,.,.,.,.,.,.,.,.,.,.,.,.,.,.,.,.,.,.,.,.,.,.,.,.",
",.,.,.,.,.,.,.,.,.,.,.,.,.,.,.,.,.,.,.,.,.,.,.,.,.,.,.,.,.,.,.,.,.,.,.,.,.,.,.,.,.,.,.,.,.,.,.,.,.,.,.,.,.,.,.,.,.,.,.,.,.,.,.,."
};
